<svg width="32" height="32" viewBox="0 0 32 32" fill="none" xmlns="http://www.w3.org/2000/svg">
<g clip-path="url(#clip0_0_27)">
<path fill-rule="evenodd" clip-rule="evenodd" d="M16 29C16 29 26 22 26 13C26 10.3478 24.9464 7.8043 23.0711 5.92893C21.1957 4.05357 18.6522 3 16 3C13.3478 3 10.8043 4.05357 8.92893 5.92893C7.05357 7.8043 6 10.3478 6 13C6 22 16 29 16 29ZM20 13C20 15.2091 18.2091 17 16 17C13.7909 17 12 15.2091 12 13C12 10.7909 13.7909 9 16 9C18.2091 9 20 10.7909 20 13Z" fill="white" fill-opacity="0.8"/>
<path d="M16 29L15.7133 29.4096C15.8854 29.5301 16.1146 29.5301 16.2867 29.4096L16 29ZM25.5 13C25.5 17.32 23.0941 21.2048 20.6227 24.0469C19.3931 25.4609 18.1623 26.5996 17.2387 27.3847C16.7772 27.7769 16.3934 28.08 16.1261 28.2844C15.9924 28.3865 15.8879 28.4639 15.8175 28.5153C15.7823 28.5411 15.7556 28.5603 15.738 28.5728C15.7292 28.5791 15.7227 28.5837 15.7186 28.5867C15.7165 28.5881 15.715 28.5892 15.7141 28.5898C15.7137 28.5901 15.7134 28.5903 15.7132 28.5904C15.7132 28.5905 15.7132 28.5904 15.7131 28.5905C15.7132 28.5904 15.7133 28.5904 16 29C16.2867 29.4096 16.2869 29.4095 16.2871 29.4094C16.2872 29.4093 16.2874 29.4091 16.2877 29.409C16.2881 29.4086 16.2888 29.4082 16.2895 29.4077C16.2911 29.4066 16.2932 29.4051 16.2959 29.4031C16.3014 29.3993 16.3092 29.3937 16.3194 29.3865C16.3396 29.372 16.3691 29.3508 16.4071 29.323C16.4832 29.2675 16.5935 29.1857 16.7333 29.0789C17.0128 28.8653 17.4103 28.5512 17.8863 28.1466C18.8377 27.3379 20.1069 26.1641 21.3773 24.7031C23.9059 21.7952 26.5 17.68 26.5 13H25.5ZM22.7175 6.28249C24.4991 8.06408 25.5 10.4804 25.5 13H26.5C26.5 10.2152 25.3938 7.54451 23.4246 5.57538L22.7175 6.28249ZM16 3.5C18.5196 3.5 20.9359 4.50089 22.7175 6.28249L23.4246 5.57538C21.4555 3.60625 18.7848 2.5 16 2.5V3.5ZM9.28249 6.28249C11.0641 4.50089 13.4804 3.5 16 3.5V2.5C13.2152 2.5 10.5445 3.60625 8.57538 5.57538L9.28249 6.28249ZM6.5 13C6.5 10.4804 7.50089 8.06408 9.28249 6.28249L8.57538 5.57538C6.60625 7.54451 5.5 10.2152 5.5 13H6.5ZM16 29C16.2867 28.5904 16.2868 28.5904 16.2869 28.5905C16.2868 28.5904 16.2868 28.5905 16.2868 28.5904C16.2866 28.5903 16.2863 28.5901 16.2859 28.5898C16.285 28.5892 16.2835 28.5881 16.2814 28.5867C16.2773 28.5837 16.2708 28.5791 16.262 28.5728C16.2444 28.5603 16.2177 28.5411 16.1825 28.5153C16.1121 28.4639 16.0076 28.3865 15.8739 28.2844C15.6066 28.08 15.2228 27.7769 14.7613 27.3847C13.8377 26.5996 12.6069 25.4609 11.3773 24.0469C8.90592 21.2048 6.5 17.32 6.5 13H5.5C5.5 17.68 8.09408 21.7952 10.6227 24.7031C11.8931 26.1641 13.1623 27.3379 14.1137 28.1466C14.5897 28.5512 14.9872 28.8653 15.2667 29.0789C15.4065 29.1857 15.5168 29.2675 15.5929 29.323C15.6309 29.3508 15.6604 29.372 15.6806 29.3865C15.6908 29.3937 15.6986 29.3993 15.7041 29.4031C15.7068 29.4051 15.7089 29.4066 15.7105 29.4077C15.7112 29.4082 15.7119 29.4086 15.7123 29.409C15.7126 29.4091 15.7128 29.4093 15.7129 29.4094C15.7131 29.4095 15.7133 29.4096 16 29ZM16 17.5C18.4853 17.5 20.5 15.4853 20.5 13H19.5C19.5 14.933 17.933 16.5 16 16.5V17.5ZM11.5 13C11.5 15.4853 13.5147 17.5 16 17.5V16.5C14.067 16.5 12.5 14.933 12.5 13H11.5ZM16 8.5C13.5147 8.5 11.5 10.5147 11.5 13H12.5C12.5 11.067 14.067 9.5 16 9.5V8.5ZM20.5 13C20.5 10.5147 18.4853 8.5 16 8.5V9.5C17.933 9.5 19.5 11.067 19.5 13H20.5Z" fill="black"/>
</g>
<defs>
<clipPath id="clip0_0_27">
<rect width="32" height="32" fill="white"/>
</clipPath>
</defs>
</svg>
