<svg width="202" height="44" viewBox="0 0 202 44" fill="none" xmlns="http://www.w3.org/2000/svg">
<g clip-path="url(#clip0_0_34)">
<path d="M68.1666 34.1132C71.7536 24.2578 59.764 10.8462 41.387 4.15749C23.01 -2.53119 5.20459 0.035932 1.61752 9.89132C-1.96955 19.7467 10.0201 33.1583 28.3971 39.847C46.7741 46.5357 64.5795 43.9686 68.1666 34.1132Z" fill="#17AA9D"/>
<path d="M93.645 11.12L95.255 27.29V27.35C95.255 27.5 95.195 27.58 95.065 27.58H94.675C94.525 27.58 94.445 27.5 94.435 27.33L92.965 12.51L86.945 25.87C86.895 25.96 86.835 26.01 86.755 26.01H86.315C86.225 26.01 86.155 25.96 86.115 25.87L80.105 12.51L78.635 27.33C78.615 27.41 78.595 27.48 78.555 27.52C78.515 27.56 78.465 27.58 78.385 27.58H77.995C77.855 27.58 77.785 27.49 77.795 27.3L79.415 11.13C79.435 11.05 79.455 11 79.485 10.97C79.515 10.94 79.565 10.92 79.635 10.92H80.145C80.265 10.92 80.345 10.98 80.375 11.09L86.535 24.92L92.685 11.09C92.735 10.98 92.815 10.92 92.935 10.92H93.445C93.555 10.92 93.625 10.99 93.645 11.14V11.12ZM109.195 26.81C109.255 26.86 109.285 26.92 109.285 26.99V27.31C109.285 27.38 109.255 27.43 109.195 27.47C109.135 27.51 109.065 27.53 108.985 27.53H98.485C98.395 27.53 98.335 27.51 98.295 27.48C98.265 27.45 98.245 27.38 98.245 27.29V11.17C98.245 11.09 98.265 11.03 98.295 10.99C98.325 10.95 98.395 10.94 98.485 10.94H108.755C108.835 10.94 108.905 10.96 108.955 11C109.005 11.04 109.035 11.09 109.035 11.16V11.5C109.035 11.57 109.005 11.62 108.955 11.67C108.905 11.71 108.835 11.73 108.755 11.73H99.075V18.67H107.085C107.185 18.67 107.255 18.69 107.315 18.73C107.365 18.77 107.395 18.83 107.395 18.9V19.24C107.395 19.39 107.295 19.47 107.085 19.47H99.075V26.75H108.965C109.055 26.75 109.135 26.77 109.195 26.82V26.81ZM126.885 30.46C126.885 30.46 126.935 30.36 126.935 30.29V26.96C126.935 26.89 126.915 26.84 126.875 26.8C126.835 26.76 126.775 26.74 126.705 26.74H125.205V11.18C125.205 11.12 125.185 11.07 125.145 11.03C125.105 10.99 125.055 10.97 124.995 10.97H114.855C114.795 10.97 114.745 10.99 114.705 11.03C114.665 11.07 114.645 11.12 114.645 11.18L114.595 15.15C114.595 16.61 114.505 18.09 114.335 19.57C114.175 21.05 113.925 22.43 113.595 23.7C113.265 24.97 112.855 25.98 112.365 26.74H111.145C111.065 26.74 111.015 26.76 110.975 26.8C110.935 26.84 110.915 26.9 110.915 26.96V30.29C110.915 30.37 110.935 30.42 110.965 30.46C110.995 30.5 111.045 30.52 111.095 30.52H111.525C111.595 30.52 111.645 30.5 111.685 30.46C111.725 30.42 111.745 30.36 111.745 30.3V27.57H126.085V30.3C126.085 30.37 126.105 30.42 126.145 30.46C126.185 30.5 126.235 30.52 126.305 30.52H126.735C126.785 30.52 126.835 30.5 126.865 30.46H126.885ZM124.395 26.73H113.325C113.775 25.99 114.165 24.99 114.485 23.72C114.805 22.46 115.045 21.09 115.205 19.6C115.365 18.12 115.445 16.65 115.445 15.21V11.77H124.395V26.73ZM139.255 27.28C138.345 27.61 137.405 27.77 136.445 27.77C134.875 27.77 133.435 27.39 132.115 26.63C130.795 25.87 129.755 24.84 128.985 23.54C128.215 22.24 127.835 20.81 127.835 19.26C127.835 17.71 128.215 16.27 128.985 14.96C129.755 13.66 130.795 12.62 132.115 11.86C133.435 11.1 134.875 10.72 136.445 10.72C137.365 10.72 138.285 10.89 139.185 11.22C140.085 11.55 140.925 12.02 141.695 12.63C141.805 12.71 141.865 12.8 141.865 12.89C141.865 12.91 141.855 12.94 141.835 12.98L141.595 13.31C141.595 13.31 141.515 13.38 141.445 13.38C141.375 13.38 141.305 13.35 141.215 13.29C140.445 12.72 139.665 12.29 138.865 11.98C138.065 11.68 137.255 11.53 136.445 11.53C135.025 11.53 133.725 11.87 132.535 12.56C131.345 13.25 130.395 14.18 129.705 15.37C129.015 16.55 128.665 17.85 128.665 19.26C128.665 20.67 129.015 21.95 129.715 23.13C130.415 24.31 131.355 25.24 132.545 25.94C133.735 26.63 135.035 26.98 136.445 26.98C137.265 26.98 138.075 26.82 138.885 26.51C139.695 26.2 140.465 25.76 141.205 25.18C141.255 25.13 141.325 25.1 141.395 25.1C141.445 25.1 141.505 25.12 141.555 25.16L141.785 25.49C141.785 25.49 141.815 25.54 141.815 25.58C141.815 25.68 141.765 25.77 141.665 25.84C140.965 26.47 140.165 26.95 139.255 27.28ZM143.535 11.68C143.535 11.68 143.475 11.58 143.475 11.52V11.16C143.475 11.09 143.495 11.04 143.535 11C143.575 10.96 143.635 10.94 143.715 10.94H154.305C154.445 10.94 154.525 11.01 154.525 11.16V11.51C154.525 11.59 154.505 11.64 154.465 11.69C154.425 11.73 154.375 11.75 154.305 11.75H149.445V27.36C149.445 27.51 149.365 27.59 149.205 27.59H148.845C148.695 27.59 148.615 27.51 148.615 27.36V11.75H143.715C143.635 11.75 143.585 11.73 143.535 11.69V11.68ZM170.245 11.11V27.37C170.245 27.51 170.175 27.57 170.045 27.57H169.635C169.495 27.57 169.435 27.5 169.435 27.37V12.16L157.785 27.41C157.705 27.52 157.595 27.58 157.455 27.58H157.055C156.915 27.58 156.855 27.51 156.855 27.38V11.11C156.855 10.97 156.925 10.91 157.055 10.91H157.465C157.605 10.91 157.665 10.98 157.665 11.11V26.27L169.265 11.12C169.375 10.98 169.485 10.9 169.605 10.9H170.035C170.175 10.9 170.235 10.97 170.235 11.1L170.245 11.11ZM174.685 27.13C174.225 27.45 173.685 27.61 173.085 27.61H172.845C172.765 27.59 172.695 27.57 172.645 27.53C172.595 27.49 172.565 27.44 172.565 27.38V27.02C172.565 26.88 172.655 26.8 172.835 26.8H173.025C173.725 26.77 174.295 26.47 174.725 25.91C175.155 25.35 175.395 24.57 175.455 23.6C175.815 18.09 176.065 13.97 176.205 11.22C176.205 11.14 176.225 11.07 176.275 11.02C176.325 10.97 176.385 10.95 176.465 10.95H186.555C186.635 10.95 186.685 10.97 186.735 11.01C186.775 11.05 186.795 11.11 186.795 11.17V27.32C186.795 27.49 186.735 27.57 186.605 27.57H186.205C186.125 27.57 186.075 27.55 186.025 27.5C185.985 27.45 185.965 27.39 185.965 27.32V11.76H177.025C176.785 15.97 176.535 19.96 176.275 23.74C176.215 24.53 176.045 25.21 175.785 25.79C175.525 26.37 175.155 26.82 174.685 27.14V27.13ZM200.325 19.56C199.855 18.76 199.215 18.14 198.385 17.69C197.555 17.24 196.615 17.01 195.575 17.01H191.465V11.16C191.465 10.99 191.395 10.91 191.245 10.91H190.875C190.795 10.91 190.745 10.93 190.695 10.98C190.655 11.03 190.635 11.09 190.635 11.16V27.33C190.635 27.4 190.655 27.45 190.695 27.5C190.735 27.54 190.795 27.56 190.875 27.56H195.575C196.625 27.56 197.555 27.33 198.385 26.88C199.215 26.43 199.865 25.8 200.325 24.99C200.785 24.18 201.025 23.27 201.025 22.26C201.025 21.25 200.795 20.36 200.325 19.57V19.56ZM199.595 24.57C199.195 25.26 198.645 25.79 197.945 26.18C197.245 26.57 196.455 26.76 195.565 26.76H191.455V17.83H195.565C196.455 17.83 197.245 18.02 197.945 18.41C198.645 18.8 199.195 19.33 199.595 20C199.995 20.67 200.195 21.43 200.195 22.26C200.195 23.09 199.995 23.89 199.595 24.57Z" fill="black"/>
<path d="M44.935 31.3699V25.4299H55.205L58.495 22.1399H44.935V7.68994H40.335C37.875 8.91994 34.685 11.6699 32.445 14.7599C30.215 11.6699 27.015 8.91994 24.555 7.68994H19.955V31.3699H24.565V13.1499C27.495 15.4299 30.545 19.2699 30.545 21.4599H34.355C34.355 19.2699 37.415 15.4299 40.335 13.1499V22.1399H36.185C34.985 22.1399 33.855 22.4099 32.835 22.8899C30.155 24.1499 28.295 26.8699 28.295 30.0299C28.295 32.7499 29.675 35.1499 31.775 36.5699C33.035 37.4199 34.555 37.9199 36.185 37.9199H47.535V34.6299H37.555C35.015 34.6299 32.955 32.5699 32.955 30.0299C32.955 27.4899 35.015 25.4299 37.555 25.4299H40.335V31.3699H44.945H44.935Z" fill="white"/>
</g>
<defs>
<clipPath id="clip0_0_34">
<rect width="200.05" height="43.14" fill="white" transform="translate(0.974976 0.429932)"/>
</clipPath>
</defs>
</svg>
