<svg width="24" height="25" viewBox="0 0 24 25" fill="none" xmlns="http://www.w3.org/2000/svg">
<g clip-path="url(#clip0_0_666)">
<path fill-rule="evenodd" clip-rule="evenodd" d="M22.3646 19.5894L21.3459 20.5574C20.061 21.7785 18.6256 22.4 17.086 22.4C15.0082 22.4 12.7683 21.2725 10.43 19.0504L4.52637 13.4402C2.68004 11.6856 1.54562 9.98608 1.15784 8.37453C0.683233 6.42196 1.27938 4.6344 2.9405 3.06135L3.95916 2.09331C4.61319 1.47179 5.67237 1.31779 6.49424 1.7303C8.03381 2.50583 9.63126 5.04691 9.81069 5.33292C10.129 5.86644 10.2274 6.41646 10.0885 6.88948C9.98432 7.24699 9.74702 7.544 9.39975 7.74201C8.93093 8.11602 8.38109 8.57803 8.28848 8.69354C7.69812 9.51857 7.76757 10.1511 8.52578 10.8716L13.1329 15.2498C13.8969 15.9758 14.5509 16.0363 15.4307 15.4698C15.5465 15.3818 16.0326 14.8647 16.4262 14.4192C16.7214 13.9627 17.196 13.7097 17.7806 13.7097C18.1626 13.7097 18.5677 13.8197 18.9555 14.0287C19.2623 14.1992 21.9363 15.7173 22.7523 17.1803C23.1922 17.9834 23.0359 18.9514 22.3646 19.5894Z" fill="white" fill-opacity="0.8" stroke="black" stroke-linecap="round" stroke-linejoin="round"/>
</g>
<defs>
<clipPath id="clip0_0_666">
<rect width="24" height="24" fill="white" transform="translate(0 0.5)"/>
</clipPath>
</defs>
</svg>
