<svg width="32" height="33" viewBox="0 0 32 33" fill="none" xmlns="http://www.w3.org/2000/svg">
<g clip-path="url(#clip0_0_571)">
<path d="M20.5488 18.3075C20.6872 18.2153 20.8465 18.1592 21.0122 18.1441C21.1779 18.1291 21.3447 18.1556 21.4975 18.2212L27.3925 20.8625C27.5912 20.9474 27.757 21.0944 27.8651 21.2814C27.9733 21.4684 28.018 21.6854 27.9925 21.9C27.7983 23.3513 27.0836 24.6827 25.9813 25.6465C24.8791 26.6104 23.4642 27.1411 22 27.14C17.4913 27.14 13.1673 25.3489 9.97919 22.1608C6.79107 18.9727 5 14.6487 5 10.14C4.99888 8.67574 5.5296 7.26092 6.49345 6.15865C7.45731 5.05638 8.78869 4.34169 10.24 4.14749C10.4545 4.122 10.6716 4.16668 10.8586 4.27484C11.0456 4.383 11.1926 4.54882 11.2775 4.74749L13.9188 10.6475C13.9836 10.799 14.0101 10.9643 13.9957 11.1285C13.9813 11.2927 13.9265 11.4508 13.8363 11.5887L11.165 14.765C11.0702 14.908 11.0142 15.0731 11.0024 15.2442C10.9906 15.4153 11.0233 15.5866 11.0975 15.7412C12.1313 17.8575 14.3188 20.0187 16.4413 21.0425C16.5967 21.1163 16.7688 21.1484 16.9404 21.1354C17.112 21.1225 17.2773 21.0651 17.42 20.9687L20.5488 18.3075Z" stroke="black" stroke-linecap="round" stroke-linejoin="round"/>
<path d="M20 7.14001V12.14H25" stroke="black" stroke-linecap="round" stroke-linejoin="round"/>
<path d="M20 12.14L26 6.14001" stroke="black" stroke-linecap="round" stroke-linejoin="round"/>
</g>
<defs>
<clipPath id="clip0_0_571">
<rect width="32" height="32" fill="white" transform="translate(0 0.140015)"/>
</clipPath>
</defs>
</svg>
