<svg width="32" height="33" viewBox="0 0 32 33" fill="none" xmlns="http://www.w3.org/2000/svg">
<g clip-path="url(#clip0_0_591)">
<path d="M25.8947 17.3542C25.4096 16.7308 25.5483 16.4534 25.8947 15.8961C25.9008 15.8898 29.9047 10.2585 30.3172 8.34873L30.3198 8.34746C30.5247 7.65149 30.3198 7.14001 29.3285 7.14001H26.0484C25.2133 7.14001 24.8283 7.57897 24.622 8.0701C24.622 8.0701 22.9519 12.139 20.5893 14.7765C19.8269 15.5386 19.4744 15.7829 19.0581 15.7829C18.8531 15.7829 18.5343 15.5386 18.5343 14.8427V8.34746C18.5343 7.51282 18.3006 7.14001 17.6093 7.14001H12.4516C11.9279 7.14001 11.6166 7.52935 11.6166 7.89196C11.6166 8.68335 12.7979 8.86529 12.9204 11.0919V15.9229C12.9204 16.9814 12.7317 17.1761 12.3129 17.1761C11.1978 17.1761 8.4915 13.0907 6.8877 8.41488C6.56393 7.50772 6.24768 7.14129 5.4064 7.14129H2.12504C1.18876 7.14129 1 7.58024 1 8.07136C1 8.93909 2.11504 13.2535 6.18517 18.9535C8.89777 22.8444 12.7179 24.9525 16.193 24.9525C18.2818 24.9525 18.5368 24.4844 18.5368 23.679C18.5368 19.9613 18.3481 19.6101 19.3944 19.6101C19.8794 19.6101 20.7144 19.8544 22.6645 21.731C24.8934 23.9563 25.2596 24.9525 26.507 24.9525H29.7873C30.7222 24.9525 31.196 24.4844 30.9236 23.5607C30.2997 21.6178 26.0846 17.6214 25.8947 17.3542Z" stroke="black" stroke-linecap="round" stroke-linejoin="round"/>
</g>
<defs>
<clipPath id="clip0_0_591">
<rect width="32" height="32" fill="white" transform="translate(0 0.140015)"/>
</clipPath>
</defs>
</svg>
