<svg width="32" height="33" viewBox="0 0 32 33" fill="none" xmlns="http://www.w3.org/2000/svg">
<g clip-path="url(#clip0_0_582)">
<path d="M9 13.14C9 12.0791 9.42143 11.0617 10.1716 10.3116C10.9217 9.56144 11.9391 9.14001 13 9.14001L15 13.14L13.46 15.4488C14.0709 16.9084 15.2316 18.0691 16.6912 18.68L19 17.14L23 19.14C23 20.2009 22.5786 21.2183 21.8284 21.9684C21.0783 22.7186 20.0609 23.14 19 23.14C16.3478 23.14 13.8043 22.0864 11.9289 20.2111C10.0536 18.3357 9 15.7922 9 13.14Z" stroke="black" stroke-linecap="round" stroke-linejoin="round"/>
<path d="M9.99127 26.5288C12.5119 27.9877 15.4771 28.48 18.334 27.9141C21.1909 27.3482 23.7445 25.7626 25.5186 23.453C27.2928 21.1434 28.1665 18.2674 27.9768 15.3612C27.787 12.455 26.5469 9.71693 24.4875 7.65756C22.4281 5.59819 19.6901 4.35804 16.7839 4.16832C13.8777 3.97861 11.0017 4.85228 8.69208 6.62645C6.38246 8.40062 4.79688 10.9542 4.23096 13.8111C3.66505 16.6679 4.15742 19.6331 5.61627 22.1538L4.05252 26.8226C3.99376 26.9987 3.98523 27.1878 4.02789 27.3686C4.07056 27.5494 4.16272 27.7147 4.29405 27.846C4.42539 27.9774 4.59071 28.0695 4.77148 28.1122C4.95225 28.1548 5.14132 28.1463 5.31752 28.0876L9.99127 26.5288Z" stroke="black" stroke-linecap="round" stroke-linejoin="round"/>
</g>
<defs>
<clipPath id="clip0_0_582">
<rect width="32" height="32" fill="white" transform="translate(0 0.140015)"/>
</clipPath>
</defs>
</svg>
