<svg width="188" height="18" viewBox="0 0 188 18" fill="none" xmlns="http://www.w3.org/2000/svg">
<g clip-path="url(#clip0_0_635)">
<path d="M111 1.875L112.852 6.3266L117.657 6.71188L113.996 9.8484L115.114 14.5381L111 12.025L106.886 14.5381L108.004 9.8484L104.343 6.71188L109.148 6.3266L111 1.875Z" fill="#67696A"/>
<path d="M128.5 1.875L130.352 6.3266L135.157 6.71188L131.496 9.8484L132.614 14.5381L128.5 12.025L124.386 14.5381L125.504 9.8484L121.843 6.71188L126.648 6.3266L128.5 1.875Z" fill="#67696A"/>
<path d="M146 1.875L147.852 6.3266L152.657 6.71188L148.996 9.8484L150.114 14.5381L146 12.025L141.886 14.5381L143.004 9.8484L139.343 6.71188L144.148 6.3266L146 1.875Z" fill="#67696A"/>
<path d="M163.5 1.875L165.352 6.3266L170.157 6.71188L166.496 9.8484L167.614 14.5381L163.5 12.025L159.386 14.5381L160.504 9.8484L156.843 6.71188L161.648 6.3266L163.5 1.875Z" fill="#67696A"/>
<path d="M181 1.875L182.852 6.3266L187.657 6.71188L183.996 9.8484L185.114 14.5381L181 12.025L176.886 14.5381L178.004 9.8484L174.343 6.71188L179.148 6.3266L181 1.875Z" fill="#67696A"/>
<mask id="mask0_0_635" style="mask-type:luminance" maskUnits="userSpaceOnUse" x="0" y="0" width="88" height="18">
<path d="M87.5172 0H0V18H87.5172V0Z" fill="white"/>
</mask>
<g mask="url(#mask0_0_635)">
<path d="M5.791 1.33132H4.79169C4.48321 1.33132 4.18528 1.39525 3.89666 1.52374C3.60742 1.65222 3.35045 1.85705 3.127 2.13946C2.90231 2.42187 2.72356 2.78374 2.587 3.22691C2.45293 3.66884 2.3859 4.19767 2.3859 4.81339C2.3859 5.41546 2.46038 5.92629 2.60749 6.34277C2.75521 6.75987 2.95073 7.10312 3.19466 7.37312C3.43859 7.64187 3.71418 7.83739 4.02204 7.95905C4.32928 8.08132 4.65018 8.14215 4.98411 8.14215H5.791V1.33132ZM1.94273 14.8965H0.192383L3.30949 9.1427C2.39893 8.70698 1.74783 8.12663 1.3568 7.40167C0.965762 6.67732 0.769624 5.81456 0.769624 4.81339C0.769624 4.04374 0.878866 3.3647 1.09673 2.77443C1.31397 2.18477 1.61004 1.68822 1.98183 1.28353C2.35425 0.878839 2.78687 0.574701 3.28031 0.369253C3.775 0.164426 4.297 0.0620117 4.84942 0.0620117H7.31231V14.8965H5.791V9.39346H4.79169L1.94273 14.8965Z" fill="#191919"/>
<path fill-rule="evenodd" clip-rule="evenodd" d="M22.531 16.8205H21.1655V14.8778H16.9138V16.8205H15.547V13.6265H16.1429C16.4513 13.0492 16.6915 12.4273 16.8653 11.7601C17.0391 11.0928 17.1695 10.4194 17.2595 9.73971C17.3495 9.06005 17.4035 8.3866 17.4233 7.71936C17.4432 7.05212 17.4525 6.41715 17.4525 5.81384V4.96847H21.7626V13.6271H22.5322V16.8205H22.531ZM29.1891 14.4346C28.8682 14.6146 28.5126 14.771 28.1215 14.9063C27.7305 15.041 27.2898 15.1081 26.8032 15.1081C25.8027 15.1081 25.0007 14.6922 24.398 13.858C23.796 13.0244 23.4937 11.8507 23.4937 10.3368C23.4937 9.60564 23.5558 8.90302 23.6768 8.23019C23.7991 7.5555 23.9847 6.95964 24.2354 6.44012C24.4855 5.91998 24.8027 5.50288 25.1875 5.18943C25.5724 4.87536 26.0335 4.71771 26.5717 4.71771C27.3674 4.71771 28.0092 5.11619 28.4958 5.91129C28.9837 6.70578 29.2282 7.88012 29.2282 9.43246V10.2791H25.0907C25.0907 11.3566 25.2732 12.197 25.6388 12.7991C26.005 13.4024 26.5785 13.7041 27.3612 13.7041C27.656 13.7041 27.9608 13.6625 28.2749 13.5799C28.5895 13.4955 28.8366 13.4154 29.016 13.3378L29.1891 14.4346ZM26.514 5.94978C26.2967 5.94978 26.1043 6.02612 25.9367 6.17943C25.7704 6.3346 25.6295 6.54874 25.5147 6.82495C25.3986 7.10053 25.3086 7.42453 25.2447 7.79633C25.1807 8.16874 25.1354 8.57219 25.11 9.00915H27.6498V8.79812C27.6498 8.73357 27.6467 8.66281 27.6405 8.58584C27.6343 8.50888 27.6306 8.42571 27.6306 8.33571C27.5791 7.57846 27.4568 6.99129 27.2644 6.57419C27.072 6.15833 26.8218 5.94978 26.514 5.94978ZM20.2419 6.19929V13.6265H17.491C17.7467 13.2032 17.9584 12.7029 18.1253 12.1256C18.2929 11.5484 18.427 10.9358 18.5288 10.2884C18.6318 9.6404 18.7026 8.97998 18.7411 8.30591C18.7795 7.63246 18.7988 6.9944 18.7988 6.39171V6.19929H20.2419ZM14.6619 4.96784V14.8778H13.1412V10.1438H10.8713V14.8772H9.33203V4.96722H10.8713V8.87322H13.1418V4.96784H14.6619ZM36.54 14.8778H34.8269L32.4602 9.98984L32.2864 9.77881V14.8772H30.7471V4.96722H32.2864V9.46971L32.4602 9.27729L34.5581 4.96722H36.193L33.7692 9.43122L36.54 14.8765V14.8778ZM38.5212 9.95136C38.5212 11.1183 38.7012 12.0356 39.06 12.7029C39.42 13.3701 39.9705 13.7034 40.7147 13.7034C40.9971 13.7034 41.2858 13.6618 41.5806 13.5793C41.876 13.4949 42.1144 13.4148 42.2931 13.3372L42.4471 14.4346C42.1522 14.6146 41.822 14.771 41.4564 14.9063C41.0902 15.041 40.6769 15.1081 40.2151 15.1081C39.2282 15.1081 38.4287 14.6984 37.8192 13.8772C37.2109 13.0561 36.9055 11.8761 36.9055 10.3368C36.9055 9.49019 36.9924 8.72053 37.1662 8.02784C37.3388 7.33515 37.5728 6.74488 37.8676 6.25764C38.1624 5.77102 38.5156 5.3924 38.9259 5.12302C39.3355 4.85364 39.7787 4.71957 40.2542 4.71957C40.6762 4.71957 41.0586 4.77667 41.3987 4.89212C41.7382 5.00757 42.043 5.1615 42.3124 5.35391L41.5229 6.68219C41.3429 6.47612 41.1411 6.30357 40.9164 6.16205C40.693 6.02115 40.4652 5.95102 40.2337 5.95102C39.9649 5.95102 39.721 6.06584 39.5031 6.29674C39.2859 6.52764 39.1059 6.82929 38.9644 7.20109C38.8235 7.5735 38.7142 7.99929 38.6373 8.48095C38.5603 8.96198 38.5212 9.45171 38.5212 9.95136ZM49.0916 12.5756H49.8401L51.8946 4.93619C52.0473 4.36019 52.182 3.80343 52.3539 3.03564H52.4315C52.393 3.72709 52.3545 4.41791 52.3545 5.0715V14.6878H53.2756V0.961914H52.2006L49.86 9.73474C49.7631 10.0805 49.6092 10.8098 49.5329 11.3281H49.4751C49.4174 10.8104 49.2827 10.1003 49.1871 9.73536L46.8645 0.961914H45.751V14.6872H46.5951V5.07088C46.5951 4.37881 46.5765 3.68798 46.538 3.03502H46.5958C46.7112 3.66812 46.8651 4.2826 47.0569 4.99329L49.0903 12.575L49.0916 12.5756ZM57.3455 14.1503C58.248 14.1503 58.8817 13.2876 59.2262 12.2498V9.58205H58.1896C56.5969 9.58205 55.8291 10.3114 55.8291 12.0003C55.8291 13.3633 56.425 14.1503 57.3455 14.1503ZM59.4955 14.6878C59.4186 14.4383 59.323 14.0734 59.2659 13.3825C58.8047 14.3043 58.1133 14.8803 57.1537 14.8803C55.849 14.8803 54.9465 13.8437 54.9465 12.0772C54.9465 10.0041 56.0793 8.92909 58.1716 8.92909H59.2268V7.71998C59.2268 6.2415 58.6707 5.60778 57.6149 5.60778C56.7893 5.60778 56.0408 5.9926 55.5802 6.66419L55.3307 5.80019C55.7143 5.30116 56.5206 4.82074 57.6149 4.82074C59.2082 4.82074 60.11 5.70398 60.11 7.62378V12.9027C60.11 13.5743 60.2069 14.3241 60.3211 14.6878H59.4955ZM64.8707 14.1503C66.0997 14.1503 66.9053 12.6917 66.9053 9.63915C66.9053 7.10488 66.2145 5.60715 65.101 5.60715C64.237 5.60715 63.5077 6.52888 63.0856 7.56543V12.9778C63.4692 13.7661 64.0067 14.1491 64.8707 14.1491V14.1503ZM64.813 14.861C64.0843 14.861 63.4506 14.4961 63.0862 14.0169V17.6827H62.1838V5.01253H62.9708L63.0478 6.60584C63.4698 5.68412 64.1805 4.82012 65.2549 4.82012C66.8675 4.82012 67.8084 6.75915 67.8084 9.56219C67.8084 13.1125 66.6174 14.861 64.813 14.861ZM70.4383 9.67826L73.7975 14.6872H74.7968L71.3787 9.50446L74.5653 5.01315H73.6826L70.4383 9.56281V5.01315H69.5358V14.6878H70.4377V9.6764L70.4383 9.67826ZM80.4587 13.0561L80.7467 13.786C80.7467 13.786 80.018 14.8803 78.4824 14.8803C76.428 14.8803 75.4876 13.0182 75.4876 9.85019C75.4876 6.68219 76.6775 4.82012 78.3093 4.82012C79.9789 4.82012 81.0546 6.56736 80.7473 10.0029H76.3715C76.4087 12.6532 77.1008 14.0932 78.5023 14.0932C79.7871 14.0932 80.4593 13.0567 80.46 13.0554L80.4587 13.0561ZM78.3086 5.57053C77.2907 5.57053 76.4652 6.87522 76.3895 9.29467H79.9026C80.0565 6.72129 79.2874 5.57053 78.3086 5.57053ZM87.1392 5.76171V5.01253H81.764V5.76109H84.0109V14.6866H84.9122V5.76171H87.1392Z" fill="#191919"/>
</g>
</g>
<defs>
<clipPath id="clip0_0_635">
<rect width="188" height="18" fill="white"/>
</clipPath>
</defs>
</svg>
